<svg aria-hidden="true" style="position: absolute; width: 0; height: 0; overflow: hidden;" version="1.1" xmlns="http://www.w3.org/2000/svg" xmlns:xlink="http://www.w3.org/1999/xlink">
<defs>
<symbol id="icon-b-bishop" viewBox="0 0 29 32">
<title>b-bishop</title>
<path fill="#333" style="fill: var(--color1, #333)" d="M14.412 1.030c-0.361 0.008-0.715 0.045-0.941 0.105-0.89 0.242-1.523 0.741-1.848 1.455-0.165 0.357-0.178 0.471-0.178 1.249 0.007 0.763 0.027 0.907 0.186 1.309 0.104 0.25 0.31 0.635 0.454 0.873l0.268 0.413-0.213 0.043c-1.044 0.207-3.834 2.362-4.955 3.825-1.609 2.122-1.891 4.364-0.833 6.752 0.31 0.685 0.984 1.754 1.575 2.49 0.254 0.314 0.461 0.599 0.461 0.642 0 0.036-0.124 0.535-0.268 1.104-0.681 2.636-0.661 2.524-0.531 2.892 0.275 0.742 1.018 1.138 2.858 1.515 0.378 0.078-1.848 0.691-2.995 0.82-0.482 0.057-1.147 0.065-2.216 0.015-0.839-0.036-1.72-0.044-1.96-0.015-1.001 0.122-2.114 1.010-2.858 2.259l-0.351 0.599 0.591 0.899c1.104 1.66 1.771 2.473 2.225 2.721l0.24 0.129 0.13-0.243c0.138-0.264 0.351-0.436 0.68-0.535 0.24-0.078 3.183-0.492 4.715-0.671 2.542-0.299 3.988-0.783 5.28-1.797l0.578-0.45 0.42 0.329c1.386 1.078 3.62 1.729 7.231 2.097 2.148 0.229 2.85 0.385 3.312 0.756 0.131 0.1 0.269 0.264 0.31 0.356l0.075 0.172 0.329-0.193c0.66-0.371 1.284-1.164 2.524-3.201l0.227-0.37-0.247-0.436c-0.474-0.842-1.147-1.592-1.771-1.994-0.337-0.207-1.010-0.428-1.386-0.442-0.193-0.007-1.053 0.014-1.925 0.043-2.020 0.071-3.012-0.064-4.707-0.634-0.412-0.135-0.481-0.178-0.343-0.207 0.097-0.021 0.406-0.085 0.695-0.149 1.438-0.299 2.259-0.941 2.259-1.754 0-0.278-0.171-0.95-0.577-2.285-0.131-0.413-0.248-0.89-0.276-1.070-0.041-0.314-0.028-0.335 0.343-0.785 0.55-0.663 1.352-1.934 1.677-2.661 0.158-0.342 0.365-0.941 0.454-1.318 0.158-0.607 0.172-0.792 0.144-1.549-0.062-1.583-0.59-2.858-1.72-4.159-1.207-1.395-3.5-3.115-4.57-3.449-0.165-0.050-0.296-0.1-0.296-0.114s0.076-0.134 0.165-0.256c0.412-0.578 0.73-1.523 0.73-2.191 0-0.378-0.2-1.224-0.372-1.566-0.31-0.607-1.053-1.138-1.831-1.292-0.258-0.050-0.626-0.069-0.984-0.061z"></path>
<path fill="#535d6c" style="fill: var(--color2, #535d6c)" d="M13.467 0.972c-0.898 0.243-1.524 0.742-1.852 1.456-0.165 0.357-0.179 0.471-0.179 1.248 0.007 0.764 0.028 0.907 0.186 1.306 0.103 0.25 0.309 0.636 0.454 0.873l0.269 0.414-0.213 0.043c-1.042 0.207-3.841 2.362-4.963 3.826-1.612 2.121-1.892 4.367-0.834 6.754 0.309 0.685 0.986 1.755 1.572 2.487 0.254 0.314 0.461 0.6 0.461 0.642 0 0.036-0.123 0.535-0.269 1.106-0.681 2.637-0.661 2.529-0.53 2.886 0.275 0.742 1.018 1.14 2.863 1.514 0.378 0.079-1.852 0.692-2.991 0.821-0.482 0.057-1.147 0.064-2.213 0.014-0.842-0.036-1.716-0.043-1.965-0.014-0.994 0.121-2.117 1.006-2.863 2.262l-0.351 0.6 0.592 0.898c1.099 1.664 1.764 2.479 2.229 2.72l0.241 0.128 0.131-0.243c0.138-0.264 0.351-0.435 0.681-0.535 0.241-0.079 3.183-0.492 4.723-0.67 2.542-0.299 3.993-0.785 5.284-1.797l0.578-0.449 0.419 0.329c1.379 1.081 3.616 1.73 7.241 2.096 2.149 0.229 2.847 0.385 3.32 0.756 0.131 0.1 0.269 0.264 0.309 0.357l0.076 0.171 0.33-0.193c0.661-0.371 1.283-1.165 2.526-3.202l0.227-0.371-0.248-0.435c-0.475-0.84-1.147-1.589-1.772-1.996-0.337-0.207-1.010-0.428-1.387-0.443-0.192-0.007-1.050 0.014-1.924 0.043-2.021 0.071-3.015-0.064-4.715-0.636-0.413-0.136-0.482-0.178-0.344-0.207 0.096-0.021 0.406-0.086 0.695-0.15 1.435-0.299 2.261-0.94 2.261-1.755 0-0.279-0.172-0.948-0.578-2.287-0.131-0.414-0.248-0.89-0.275-1.073-0.041-0.314-0.028-0.335 0.344-0.785 0.55-0.664 1.347-1.93 1.676-2.662 0.158-0.343 0.365-0.94 0.454-1.323 0.158-0.606 0.172-0.792 0.144-1.547-0.062-1.58-0.592-2.861-1.716-4.159-1.203-1.389-3.504-3.119-4.571-3.444-0.165-0.050-0.296-0.1-0.296-0.114s0.076-0.136 0.165-0.257c0.413-0.578 0.729-1.522 0.729-2.188 0-0.378-0.2-1.223-0.371-1.564-0.309-0.606-1.050-1.14-1.828-1.289-0.516-0.1-1.475-0.079-1.924 0.043zM14.99 2.653c0.351 0.121 0.681 0.407 0.791 0.678 0.206 0.514 0.069 1.281-0.296 1.614-0.565 0.535-1.716 0.399-2.133-0.25-0.2-0.299-0.269-0.806-0.158-1.156 0.103-0.329 0.447-0.742 0.722-0.865 0.254-0.114 0.763-0.128 1.074-0.021zM15.465 7.352c0.674 0.243 1.548 0.721 2.349 1.273 2.221 1.547 3.496 3.136 3.817 4.75 0.090 0.443 0.090 0.542-0.041 1.214-0.371 1.913-0.736 2.479-1.86 2.878-1.283 0.449-4.947 0.664-7.802 0.457-2.847-0.214-3.713-0.65-4.202-2.138-0.282-0.865-0.413-1.847-0.317-2.421 0.11-0.692 0.654-1.763 1.275-2.504 1.171-1.414 3.32-2.97 4.875-3.535 0.613-0.221 1.235-0.214 1.916 0.036zM10.822 19.164c1.981 0.193 6.174 0.157 7.938-0.079 0.282-0.036 0.523-0.050 0.536-0.043 0.014 0.014-0.027 0.164-0.083 0.335-0.131 0.393-0.131 1.281 0 1.622 0.055 0.136 0.103 0.264 0.103 0.279 0 0.007-0.103-0.014-0.221-0.050-0.922-0.271-4.675-0.428-6.8-0.285-1.163 0.079-2.245 0.221-2.494 0.329-0.117 0.050-0.117 0.036-0.021-0.207 0.186-0.464 0.206-1.031 0.041-1.522-0.179-0.556-0.179-0.542 0.048-0.492 0.103 0.021 0.53 0.071 0.946 0.114zM18.4 22.408c0.834 0.164 1.363 0.55 1.315 0.957-0.027 0.235-0.344 0.399-0.946 0.507-1.379 0.235-7.938 0.279-8.74 0.057-0.523-0.143-0.743-0.299-0.743-0.528 0-0.25 0.186-0.556 0.427-0.7 0.2-0.128 1.219-0.271 2.814-0.399 1.115-0.086 5.268-0.014 5.886 0.107zM14.968 25.327c0.179 0.1 0.646 0.421 1.042 0.721 0.763 0.571 1.812 1.14 2.542 1.389 0.729 0.243 1.475 0.343 4.089 0.542 2.686 0.2 2.975 0.257 3.448 0.685 0.33 0.307 0.419 0.678 0.241 1.081-0.165 0.393-0.392 0.556-0.777 0.556-0.165 0-0.826-0.079-1.475-0.186-0.654-0.1-1.443-0.186-1.756-0.186-0.613 0-2.093-0.193-3.32-0.435-2.005-0.393-3.464-1.173-4.186-2.204-0.158-0.229-0.309-0.421-0.33-0.421-0.021-0.007-0.069 0.064-0.11 0.15-0.041 0.093-0.206 0.321-0.365 0.507-1.131 1.323-3.785 2.188-7.361 2.404-0.626 0.036-1.596 0.143-2.157 0.235-1.315 0.221-1.596 0.171-1.812-0.357-0.344-0.865 0.269-1.481 1.668-1.697 0.378-0.057 1.443-0.136 2.373-0.171 2.269-0.1 3.504-0.299 4.563-0.764 0.496-0.221 0.64-0.307 1.219-0.778 0.986-0.799 1.676-1.248 1.948-1.248 0.103 0 0.337 0.079 0.516 0.171z"></path>
<path fill="#535d6c" style="fill: var(--color2, #535d6c)" d="M13.547 10.122c-0.021 0.051-0.028 0.507-0.014 1.006l0.021 0.915-1.54 0.043v1.813l1.54 0.043-0.021 1.006-0.021 1.015h1.684v-2.030h1.54v-1.88h-1.54v-2.030h-0.802c-0.621 0-0.818 0.022-0.842 0.101z"></path>
</symbol>
<symbol id="icon-b-king" viewBox="0 0 29 32">
<title>b-king</title>
<path fill="#333" style="fill: var(--color1, #333)" d="M14.562-0.045c-0.632 0-0.735 0.015-0.765 0.128-0.022 0.075-0.155 0.489-0.302 0.924l-0.272 0.79-1.797 0.045v1.712l1.985 1.172v0.624c0 0.346-0.030 0.624-0.066 0.624-0.029 0-0.279 0.165-0.544 0.376-0.602 0.466-1.284 1.284-1.617 1.951-0.279 0.549-0.338 0.873-0.359 2.131-0.007 0.451-0.023 0.812-0.030 0.812-0.015 0-0.301-0.188-0.632-0.429-0.757-0.526-1.746-1.001-2.559-1.224-0.786-0.226-2.105-0.248-2.892-0.053-1.070 0.27-1.96 0.737-2.721 1.412-0.618 0.549-0.95 0.976-1.284 1.643-0.448 0.89-0.559 1.438-0.559 2.713 0.007 0.95 0.030 1.147 0.177 1.583 0.272 0.774 0.691 1.532 1.532 2.747 1.549 2.268 1.874 2.85 2.259 4.091 0.383 1.249 0.617 2.644 0.779 4.595 0.059 0.744 0.119 1.027 0.266 1.335 0.544 1.147 2.199 1.866 5.194 2.259 1.421 0.188 7.069 0.188 8.498 0 2.644-0.346 4.304-0.993 4.972-1.925 0.323-0.451 0.382-0.721 0.477-2.079 0.147-2.148 0.552-4.048 1.121-5.212 0.272-0.564 0.566-1.044 2.131-3.406 1.455-2.216 1.806-3.954 1.198-5.913-0.456-1.48-1.592-2.713-3.158-3.449-0.916-0.429-1.421-0.526-2.653-0.519-1.035 0-1.147 0.015-1.797 0.24-0.772 0.264-1.643 0.745-2.302 1.258-0.228 0.188-0.434 0.339-0.456 0.339s-0.036-0.264-0.036-0.587c0-1.078-0.132-1.968-0.359-2.456-0.258-0.579-0.89-1.275-1.677-1.857l-0.618-0.459 0.023-0.564 0.021-0.572 0.976-0.587 0.967-0.594v-1.72h-1.737l-0.118-0.323c-0.066-0.173-0.213-0.594-0.323-0.933l-0.207-0.624z"></path>
<path fill="#535d6c" style="fill: var(--color2, #535d6c)" d="M13.792 0.126c-0.022 0.075-0.154 0.489-0.301 0.924l-0.272 0.79-1.797 0.045v1.712l1.985 1.172v0.625c0 0.346-0.029 0.625-0.066 0.625-0.029 0-0.279 0.165-0.544 0.377-0.602 0.466-1.284 1.284-1.617 1.951-0.279 0.549-0.338 0.873-0.36 2.131-0.007 0.451-0.022 0.812-0.029 0.812-0.015 0-0.301-0.188-0.632-0.429-0.757-0.526-1.746-1.001-2.559-1.224-0.786-0.226-2.114-0.248-2.892-0.053-1.070 0.27-1.96 0.738-2.721 1.412-0.618 0.549-0.95 0.976-1.284 1.652-0.448 0.89-0.559 1.438-0.559 2.704 0.007 0.95 0.029 1.155 0.176 1.583 0.272 0.774 0.691 1.532 1.532 2.747 1.549 2.268 1.874 2.85 2.259 4.091 0.383 1.249 0.618 2.644 0.78 4.595 0.059 0.744 0.117 1.027 0.264 1.335 0.544 1.147 2.199 1.866 5.194 2.259 1.421 0.188 7.069 0.188 8.498 0 2.644-0.346 4.304-0.993 4.972-1.925 0.323-0.451 0.383-0.722 0.477-2.079 0.147-2.148 0.551-4.048 1.121-5.212 0.272-0.564 0.566-1.044 2.131-3.406 1.455-2.216 1.806-3.954 1.198-5.913-0.456-1.48-1.592-2.713-3.158-3.449-0.916-0.429-1.421-0.526-2.653-0.519-1.035 0-1.147 0.015-1.797 0.24-0.772 0.264-1.643 0.745-2.302 1.258-0.228 0.188-0.434 0.339-0.456 0.339s-0.037-0.264-0.037-0.587c0-1.078-0.133-1.968-0.36-2.456-0.258-0.579-0.89-1.275-1.677-1.857l-0.618-0.459 0.022-0.564 0.022-0.572 0.976-0.587 0.967-0.594v-1.72h-1.746l-0.117-0.323c-0.066-0.173-0.213-0.594-0.323-0.933l-0.206-0.625h-0.721c-0.632 0-0.735 0.015-0.764 0.128zM15.427 7.939c0.727 0.308 1.13 1.326 1.138 2.833 0 1.335-0.235 2.062-1.224 3.654-0.353 0.572-0.669 1.078-0.706 1.13-0.147 0.188-1.54-2.165-1.857-3.141-0.162-0.489-0.191-0.685-0.191-1.575 0-1.643 0.287-2.422 1.044-2.833 0.477-0.256 1.275-0.286 1.797-0.068zM7.203 11.362c1.164 0.301 2.43 1.121 3.637 2.336 1.070 1.078 1.626 1.934 2.156 3.295 0.316 0.812 0.618 2.105 0.647 2.798l0.022 0.489-0.258 0.128c-0.967 0.474-3.226 0.76-6.803 0.85l-1.635 0.038-0.846-1.155c-1.54-2.088-2.148-3.243-2.293-4.339-0.066-0.496 0.199-1.771 0.493-2.388s0.831-1.224 1.326-1.515c0.331-0.196 1.249-0.534 1.703-0.639 0.389-0.090 1.301-0.045 1.848 0.098zM24.147 11.332c0.684 0.181 1.318 0.534 1.848 1.027 0.852 0.805 1.284 1.84 1.284 3.106 0 1.215-0.397 2.071-1.977 4.219l-1.164 1.575-1.643-0.023c-2.892-0.038-4.98-0.226-5.982-0.549-0.602-0.188-1.044-0.407-1.078-0.534-0.037-0.098 0.103-1.095 0.228-1.677 0.338-1.515 1.018-2.952 1.934-4.039 1.326-1.583 3.175-2.858 4.578-3.141 0.507-0.105 1.498-0.083 1.977 0.045zM14.905 22.286c0.655 0.234 1.361 0.323 4.732 0.594 1.9 0.151 3.5 0.294 3.543 0.308 0.066 0.015 0.073 0.075 0.022 0.211-0.176 0.489-0.514 2.653-0.514 3.346 0 0.526-0.044 0.557-0.588 0.383-3.132-0.967-8.985-1.189-13.008-0.489-0.588 0.105-2.319 0.512-2.559 0.609-0.066 0.023-0.125-0.278-0.221-1.113-0.11-0.984-0.206-1.549-0.463-2.79l-0.044-0.203h0.426c0.559 0 3.877-0.264 5.246-0.414 1.224-0.135 2.174-0.294 2.644-0.444 0.434-0.143 0.441-0.143 0.816 0zM17.438 28.259c1.943 0.135 3.098 0.399 3.509 0.805 0.426 0.421 0.125 0.685-1.061 0.924-1.070 0.218-2.122 0.308-4.433 0.353-4.031 0.083-7.351-0.286-7.556-0.828-0.066-0.188 0.125-0.451 0.456-0.625 0.544-0.278 1.814-0.496 3.646-0.625 1.207-0.090 4.185-0.090 5.443-0.008z"></path>
</symbol>
<symbol id="icon-b-knight" viewBox="0 0 29 32">
<title>b-knight</title>
<path fill="#333" style="fill: var(--color1, #333)" d="M13.45 0.545c-0.105-0.028-0.19 0.008-0.342 0.083-0.328 0.159-0.924 0.881-1.378 1.643-0.231 0.393-0.424 0.728-0.431 0.744-0.015 0.017-0.321-0.168-0.685-0.41-1.318-0.845-2.405-1.232-3.774-1.326-0.491-0.033-0.899-0.050-0.916-0.041-0.015 0.009 0.037 0.518 0.104 1.13 0.187 1.652 0.163 2.696-0.075 3.705-0.372 1.557-0.722 2.49-2.353 6.367-1.729 4.116-3.038 7.65-3.38 9.157l-0.127 0.526 0.231 0.477c1.053 2.216 2.79 3.235 4.347 2.559 0.082-0.033 0.119-0.008 0.119 0.109 0 0.217 0.306 0.668 0.626 0.924 0.276 0.217 0.95 0.435 1.369 0.435 0.611 0 0.79-0.234 2.276-2.901 0.484-0.873 1.951-2.499 2.815-3.141 0.603-0.443 1.9-1.232 2.037-1.232 0.089 0-0.037 0.881-0.2 1.446-0.283 0.984-0.462 1.301-2.199 3.945-1.361 2.079-1.934 3.192-2.388 4.647-0.231 0.736-0.491 2.011-0.572 2.807l-0.045 0.442h20.281l0.053-0.61c0.104-1.429 0.134-5.092 0.051-6.624-0.432-7.77-2.413-13.264-6.273-17.457-1.472-1.609-2.713-2.447-4.236-2.892-0.618-0.175-1.806-0.251-2.139-0.125-0.149 0.050-0.178-0.016-0.461-0.976-0.477-1.592-0.95-2.362-1.9-3.081-0.238-0.18-0.365-0.271-0.47-0.299z"></path>
<path fill="#535d6c" style="fill: var(--color2, #535d6c)" d="M13.176 0.463c-0.328 0.158-0.924 0.876-1.378 1.639-0.231 0.392-0.424 0.726-0.432 0.743-0.015 0.017-0.32-0.167-0.685-0.409-1.318-0.842-2.405-1.227-3.774-1.323-0.492-0.033-0.899-0.050-0.916-0.042-0.015 0.008 0.037 0.518 0.104 1.131 0.187 1.649 0.164 2.684-0.074 3.7-0.372 1.553-0.722 2.482-2.353 6.345-1.729 4.102-3.038 7.639-3.38 9.115l-0.127 0.525 0.231 0.475c1.053 2.214 2.79 3.23 4.347 2.549 0.082-0.033 0.119-0.008 0.119 0.108 0 0.217 0.306 0.667 0.626 0.926 0.276 0.217 0.95 0.434 1.369 0.434 0.611 0 0.79-0.234 2.276-2.895 0.484-0.867 1.951-2.492 2.815-3.134 0.603-0.442 1.9-1.227 2.037-1.227 0.089 0-0.037 0.876-0.201 1.447-0.283 0.987-0.462 1.303-2.199 3.939-1.361 2.080-1.934 3.192-2.388 4.639-0.231 0.734-0.492 2.013-0.573 2.799l-0.045 0.442h20.281l0.052-0.609c0.104-1.428 0.134-5.080 0.052-6.604-0.432-7.754-2.413-13.227-6.273-17.444-1.472-1.601-2.713-2.444-4.236-2.885-0.619-0.175-1.814-0.25-2.139-0.126-0.149 0.050-0.179-0.017-0.462-0.978-0.477-1.581-0.95-2.348-1.9-3.067-0.477-0.358-0.507-0.367-0.812-0.217zM9.12 3.511l0.619 0.317-0.581 0.317c-0.529 0.284-1.215 0.551-1.438 0.551-0.060 0-0.082-0.225-0.074-0.693 0-0.376-0.022-0.809-0.052-0.958l-0.067-0.267 0.492 0.2c0.268 0.117 0.768 0.351 1.104 0.534zM13.792 3.403c0.082 0.2 0.253 0.818 0.38 1.371 0.268 1.208 0.477 1.859 0.655 2.032 0.104 0.108 0.418 0.133 1.874 0.158l1.754 0.025 0.603 0.367c1.172 0.701 2.73 2.358 3.979 4.217 2.85 4.255 4.253 9.776 4.056 15.814-0.030 0.958-0.075 2.013-0.104 2.339l-0.045 0.584-15.994 0.042 0.052-0.267c0.239-1.227 0.722-2.185 2.798-5.53 0.611-0.987 1.463-2.885 1.737-3.843 0.358-1.313 0.529-2.933 0.388-3.68-0.067-0.334 0.187-1.524 0.7-3.278 0.209-0.709 0.402-1.505 0.424-1.764 0.037-0.442 0.030-0.484-0.149-0.617-0.35-0.259-0.745 0.042-1.335 1.035-0.73 1.198-1.232 2.54-1.498 4.006-0.067 0.334-0.127 0.617-0.141 0.617-3.029 1.649-4.416 2.971-6.23 5.923-0.976 1.601-0.958 1.581-1.241 1.524-0.454-0.1-0.507-0.309-0.276-1.064 0.268-0.867-0.082-0.968-1.164-0.309-0.663 0.401-0.73 0.426-1.087 0.376-0.856-0.108-1.84-0.934-2.088-1.744-0.097-0.326-0.097-0.392 0.060-0.892 0.283-0.951 0.834-2.291 2.482-6.048 2.054-4.716 2.67-6.192 3.072-7.447l0.171-0.525 0.603-0.326c0.335-0.175 0.976-0.459 1.421-0.635 1.977-0.743 2.987-1.486 3.551-2.607 0.253-0.5 0.32-0.493 0.573 0.108z"></path>
<path fill="#535d6c" style="fill: var(--color2, #535d6c)" d="M8.64 9.377c-0.856 0.267-1.729 1.016-2.020 1.725-0.209 0.518-0.201 1.303 0.015 1.61 0.149 0.217 0.187 0.225 0.663 0.192 1.463-0.126 3.329-2.013 3.004-3.057-0.157-0.493-0.907-0.709-1.66-0.475z"></path>
<path fill="#535d6c" style="fill: var(--color2, #535d6c)" d="M3.078 19.824c-0.477 0.326-0.633 1.811-0.223 2.099 0.149 0.108 0.648 0.075 0.899-0.058 0.365-0.192 0.529-0.567 0.529-1.227 0-0.475-0.030-0.584-0.179-0.768-0.223-0.267-0.678-0.292-1.027-0.050z"></path>
</symbol>
<symbol id="icon-b-pawn" viewBox="0 0 32 32">
<title>b-pawn</title>
<path fill="#333" style="fill: var(--color1, #333)" d="M16.634-0.303c-0.498-0.032-1.014 0.004-1.53 0.113-1.191 0.258-2.526 1.15-3.019 2.033-0.654 1.171-0.613 2.783 0.099 4.292 0.141 0.282 0.248 0.532 0.248 0.564s-0.124 0.105-0.281 0.153c-0.82 0.291-2.085 1.335-2.608 2.157-0.613 0.944-0.878 2.506-0.638 3.687 0.34 1.674 1.16 2.886 2.352 3.471l0.522 0.252-0.437 0.24c-2.732 1.489-4.18 2.834-5.237 4.806-0.729 1.366-1.201 3.081-1.366 4.98-0.099 1.078-0.123 3.101-0.041 3.687l0.057 0.372h22.9l0.057-0.291c0.033-0.161 0.034-1.171 0.009-2.239-0.075-3.368-0.588-5.35-1.859-7.219-1.019-1.479-2.629-2.865-4.642-3.964l-0.687-0.379 0.314-0.12c0.481-0.186 1.304-0.807 1.674-1.263 0.754-0.927 1.047-1.859 1.047-3.307-0.008-1.561-0.414-2.598-1.386-3.543-0.597-0.573-0.944-0.814-1.725-1.181l-0.572-0.274 0.24-0.428c0.448-0.766 0.695-1.623 0.704-2.434 0.008-0.887-0.166-1.479-0.631-2.187-0.746-1.16-2.074-1.869-3.574-1.961z"></path>
<path fill="#535d6c" style="fill: var(--color2, #535d6c)" d="M15.607 0.724c-1.191 0.258-2.526 1.15-3.019 2.033-0.654 1.171-0.613 2.783 0.099 4.292 0.141 0.282 0.248 0.532 0.248 0.565s-0.124 0.105-0.281 0.153c-0.821 0.291-2.085 1.335-2.608 2.156-0.613 0.944-0.878 2.506-0.638 3.687 0.34 1.674 1.16 2.886 2.352 3.471l0.522 0.25-0.44 0.242c-2.732 1.489-4.18 2.834-5.237 4.806-0.729 1.366-1.201 3.081-1.366 4.98-0.099 1.078-0.124 3.101-0.041 3.687l0.058 0.371h22.9l0.058-0.291c0.033-0.161 0.033-1.171 0.008-2.239-0.075-3.368-0.588-5.35-1.859-7.219-1.019-1.479-2.639-2.865-4.652-3.964l-0.688-0.379 0.315-0.121c0.481-0.186 1.304-0.806 1.674-1.263 0.754-0.927 1.047-1.859 1.047-3.307-0.008-1.561-0.414-2.598-1.397-3.543-0.597-0.573-0.945-0.814-1.725-1.181l-0.571-0.274 0.24-0.427c0.448-0.766 0.696-1.633 0.704-2.434 0.008-0.887-0.165-1.479-0.63-2.187-0.994-1.551-3.029-2.28-5.104-1.848zM17.63 2.583c0.555 0.226 0.953 0.54 1.201 0.967 0.207 0.347 0.24 0.492 0.24 1.008 0 0.54-0.033 0.661-0.29 1.13-0.572 1.037-0.654 1.243-0.688 1.777-0.033 0.484-0.017 0.54 0.191 0.741 0.124 0.121 0.605 0.467 1.058 0.766 1.047 0.67 1.684 1.284 2.023 1.961 0.348 0.701 0.472 1.376 0.414 2.239-0.091 1.222-0.505 1.797-1.951 2.721-0.903 0.58-1.171 0.854-1.171 1.243 0 0.685 0.688 1.366 2.331 2.341 1.951 1.14 3.317 2.485 4.149 4.077 0.572 1.109 1.010 2.824 1.089 4.292 0.025 0.435 0.066 0.944 0.083 1.13l0.041 0.347h-19.203v-0.75c0-0.904 0.174-2.208 0.406-3.091 0.638-2.424 2.054-4.169 4.847-5.987 0.721-0.475 1.479-1.016 1.684-1.212 0.422-0.395 0.729-0.984 0.654-1.263-0.075-0.299-0.448-0.67-1.13-1.14-1.099-0.75-1.602-1.386-1.869-2.352-0.257-0.967-0.041-2.095 0.58-3.009 0.422-0.621 0.845-0.992 1.869-1.633 1.010-0.645 1.119-0.774 1.119-1.376-0.008-0.427-0.066-0.621-0.389-1.304-0.737-1.52-0.77-1.756-0.406-2.495 0.456-0.936 1.222-1.366 2.249-1.294 0.306 0.024 0.696 0.097 0.87 0.169z"></path>
</symbol>
<symbol id="icon-b-queen" viewBox="0 0 32 32">
<title>b-queen</title>
<path fill="#333" style="fill: var(--color1, #333)" d="M16.038-0.131c-0.121-0.005-0.239-0.003-0.348 0.005-0.146 0.011-0.277 0.034-0.378 0.070-1.087 0.39-1.711 1.113-1.891 2.165-0.092 0.528-0.071 0.673 0.25 1.583 0.791 2.276 0.864 4.185 0.286 7.736-0.228 1.412-0.556 3.106-0.599 3.106-0.021 0-0.285-0.619-0.591-1.378-1.078-2.653-1.652-4.647-1.84-6.298-0.064-0.62-0.058-0.856 0.078-1.857 0.178-1.318 0.157-1.566-0.17-2.302-0.435-0.967-1.13-1.48-2.079-1.549-1.215-0.084-2.388 0.719-2.704 1.84-0.135 0.513-0.135 1.378 0.008 1.891 0.092 0.344 0.214 0.519 0.741 1.087 0.812 0.873 0.958 1.181 1.138 2.439 0.143 1.018 0.036 5.605-0.135 5.956-0.036 0.069-0.214-0.092-0.563-0.513-0.833-0.984-1.498-1.985-1.866-2.798-0.542-1.198-0.584-1.549-0.385-3.132 0.15-1.258 0.021-1.814-0.591-2.636-1.095-1.455-3.432-1.104-4.236 0.636-0.364 0.804-0.356 1.78 0.021 2.593 0.214 0.452 0.82 1.095 1.344 1.429l0.47 0.299 0.092 0.781c0.107 0.967 0.526 3.26 0.976 5.306 0.178 0.842 0.421 1.943 0.528 2.456 0.107 0.505 0.241 1.018 0.305 1.147 0.057 0.122 0.627 0.856 1.258 1.634 1.275 1.557 1.489 1.866 1.763 2.499 0.278 0.65 0.214 1.121-0.285 2.293-0.598 1.403-0.706 1.831-0.749 2.927l-0.028 0.933 0.256 0.259c0.777 0.788 3.32 1.241 8.113 1.429 3.851 0.153 7.882-0.122 10.012-0.673 0.641-0.161 1.463-0.597 1.617-0.842 0.107-0.169 0.128-0.383 0.122-1.164v-0.967l-0.342-0.804c-0.641-1.506-0.907-2.216-0.916-2.465-0.029-0.873 0.399-1.6 2.165-3.688 1.061-1.267 1.13-1.412 1.557-3.278 0.72-3.166 1.352-6.598 1.352-7.351 0-0.406 0.028-0.436 0.491-0.712 0.941-0.543 1.523-1.412 1.652-2.473 0.057-0.489 0.042-0.612-0.122-1.172-0.171-0.567-0.235-0.68-0.663-1.138-0.57-0.612-0.976-0.788-1.789-0.796-0.456 0-0.607 0.038-1.010 0.245-0.89 0.452-1.446 1.215-1.532 2.114-0.021 0.237 0.015 0.881 0.086 1.455 0.114 0.976 0.113 1.070 0.006 1.592-0.221 1.061-0.958 2.37-2.208 3.894-0.435 0.528-0.655 0.742-0.685 0.673-0.1-0.199-0.235-3.192-0.199-4.381 0.064-1.917 0.414-3.038 1.258-4.022 0.67-0.78 0.762-1.027 0.762-1.985 0-0.734-0.014-0.842-0.207-1.224-0.335-0.689-0.641-1.035-1.172-1.318-0.435-0.229-0.527-0.253-1.155-0.253-0.598 0-0.727 0.023-1.078 0.214-0.907 0.474-1.412 1.224-1.472 2.182-0.021 0.283 0.014 0.881 0.078 1.335 0.228 1.652 0.079 2.944-0.606 5.117-0.407 1.292-1.532 4.236-1.703 4.45-0.064 0.076-0.207-0.575-0.535-2.43-0.727-4.116-0.684-5.751 0.207-8.421 0.285-0.856 0.306-1.070 0.143-1.754-0.199-0.85-0.685-1.498-1.344-1.814-0.245-0.112-0.628-0.183-0.993-0.198z"></path>
<path fill="#535d6c" style="fill: var(--color2, #535d6c)" d="M15.353-0.045c-1.087 0.39-1.711 1.113-1.891 2.165-0.092 0.528-0.071 0.673 0.249 1.583 0.791 2.276 0.864 4.185 0.285 7.736-0.228 1.412-0.555 3.106-0.598 3.106-0.021 0-0.285-0.62-0.591-1.378-1.078-2.653-1.652-4.647-1.84-6.298-0.064-0.62-0.057-0.856 0.078-1.848 0.178-1.318 0.157-1.566-0.171-2.302-0.435-0.967-1.13-1.48-2.079-1.549-1.215-0.084-2.388 0.72-2.704 1.84-0.135 0.513-0.135 1.378 0.007 1.891 0.092 0.344 0.214 0.52 0.741 1.087 0.812 0.873 0.958 1.181 1.138 2.439 0.143 1.018 0.036 5.605-0.135 5.956-0.036 0.069-0.214-0.092-0.563-0.513-0.833-0.984-1.498-1.985-1.866-2.798-0.542-1.198-0.584-1.549-0.385-3.132 0.15-1.258 0.021-1.814-0.591-2.636-1.095-1.455-3.432-1.104-4.236 0.635-0.364 0.804-0.356 1.78 0.021 2.593 0.214 0.452 0.82 1.095 1.344 1.429l0.471 0.299 0.092 0.78c0.107 0.967 0.527 3.26 0.976 5.306 0.178 0.842 0.42 1.943 0.527 2.456 0.107 0.505 0.242 1.018 0.306 1.147 0.057 0.122 0.627 0.856 1.258 1.634 1.275 1.557 1.489 1.866 1.763 2.499 0.278 0.65 0.214 1.121-0.285 2.293-0.598 1.403-0.705 1.831-0.748 2.927l-0.029 0.933 0.257 0.26c0.777 0.788 3.32 1.241 8.113 1.429 3.851 0.153 7.882-0.122 10.012-0.673 0.641-0.161 1.472-0.596 1.617-0.842 0.107-0.169 0.128-0.383 0.122-1.164v-0.967l-0.342-0.804c-0.641-1.506-0.907-2.216-0.916-2.465-0.029-0.873 0.399-1.6 2.165-3.688 1.061-1.267 1.13-1.412 1.557-3.278 0.72-3.166 1.352-6.598 1.352-7.351 0-0.406 0.029-0.436 0.492-0.712 0.941-0.543 1.523-1.412 1.652-2.473 0.057-0.489 0.043-0.612-0.122-1.172-0.171-0.567-0.235-0.681-0.662-1.138-0.57-0.612-0.976-0.788-1.789-0.796-0.456 0-0.606 0.038-1.010 0.245-0.89 0.452-1.446 1.215-1.532 2.114-0.021 0.237 0.014 0.881 0.085 1.455 0.114 0.976 0.114 1.070 0.007 1.592-0.221 1.061-0.958 2.37-2.208 3.894-0.435 0.528-0.655 0.742-0.684 0.673-0.1-0.199-0.235-3.192-0.199-4.381 0.064-1.917 0.413-3.038 1.258-4.022 0.67-0.78 0.762-1.027 0.762-1.985 0-0.734-0.014-0.842-0.206-1.224-0.335-0.689-0.641-1.044-1.172-1.318-0.435-0.229-0.527-0.252-1.155-0.252-0.598 0-0.727 0.023-1.078 0.214-0.907 0.474-1.412 1.224-1.472 2.182-0.021 0.283 0.014 0.881 0.078 1.335 0.228 1.652 0.078 2.944-0.606 5.117-0.407 1.292-1.532 4.236-1.703 4.45-0.064 0.076-0.206-0.574-0.534-2.43-0.727-4.116-0.684-5.751 0.206-8.421 0.285-0.856 0.306-1.070 0.143-1.754-0.199-0.85-0.684-1.498-1.344-1.814-0.435-0.199-1.309-0.268-1.72-0.122zM16.602 1.444c0.321 0.169 0.499 0.551 0.499 1.070 0 0.85-0.349 1.241-1.104 1.241-0.777 0-1.121-0.398-1.121-1.284 0-0.367 0.028-0.543 0.135-0.689 0.199-0.299 0.57-0.474 0.984-0.474 0.199 0 0.471 0.061 0.606 0.138zM9.26 2.984c0.57 0.436 0.563 1.643-0.014 2.097-0.285 0.229-0.82 0.26-1.215 0.069-0.42-0.199-0.563-0.497-0.563-1.13 0-0.689 0.221-1.044 0.762-1.189 0.306-0.084 0.827-0.008 1.035 0.153zM24.065 2.984c0.328 0.199 0.477 0.574 0.449 1.13-0.043 0.742-0.356 1.087-1.053 1.147-0.413 0.046-0.89-0.214-1.078-0.59-0.264-0.52-0.122-1.326 0.285-1.66 0.321-0.268 0.984-0.283 1.395-0.031zM3.099 6.168c0.52 0.322 0.684 1.027 0.399 1.703-0.178 0.406-0.442 0.559-0.993 0.559-0.748 0-1.121-0.421-1.121-1.275 0-0.359 0.036-0.528 0.15-0.689 0.335-0.497 1.035-0.627 1.557-0.291zM29.969 6.114c0.399 0.214 0.542 0.482 0.542 1.035 0 0.566-0.122 0.864-0.456 1.104-0.463 0.336-1.267 0.184-1.6-0.299-0.221-0.329-0.235-1.018-0.029-1.395 0.299-0.543 1.001-0.75 1.549-0.444zM9.859 9.477c0.285 0.933 0.984 2.764 1.386 3.646 0.534 1.147 0.873 1.694 1.703 2.713l0.691 0.864 0.435-0.75c0.812-1.421 1.309-3.038 1.763-5.699 0.085-0.536 0.178-0.967 0.193-0.95 0.014 0.023 0.199 0.834 0.407 1.823 0.392 1.831 0.72 3.106 0.907 3.577 0.064 0.145 0.321 0.658 0.57 1.13l0.463 0.856 0.662-0.842c0.924-1.172 1.301-1.78 1.874-3.064 0.549-1.224 0.627-1.438 1.13-2.867l0.342-0.993-0.043 0.958c-0.050 1.121 0.064 2.815 0.299 4.595 0.178 1.275 0.442 2.91 0.484 2.961 0.043 0.046 1.070-0.75 1.66-1.284 0.727-0.65 1.771-1.848 2.524-2.884 0.399-0.559 0.57-0.742 0.57-0.627 0 0.329-0.641 3.586-0.881 4.493-0.249 0.933-0.577 1.746-0.777 1.917-0.078 0.076-0.264 0.008-0.933-0.329-1.925-0.984-4.185-1.575-6.872-1.806-1.446-0.13-4.921-0.038-6.179 0.153-2.37 0.359-4.407 0.993-5.802 1.814-0.428 0.252-0.463 0.26-0.62 0.145-0.392-0.276-0.762-1.549-1.378-4.741-0.122-0.635-0.257-1.284-0.292-1.455-0.036-0.161-0.057-0.314-0.043-0.329 0.014-0.008 0.3 0.352 0.627 0.804 1.164 1.575 2.413 2.875 3.646 3.765 0.62 0.452 0.542 0.543 0.748-0.873 0.428-2.91 0.606-4.861 0.563-6.238-0.014-0.543-0.021-0.993-0.014-0.993s0.085 0.229 0.178 0.513zM18.502 18.805c3.894 0.352 5.682 0.976 5.597 1.943-0.036 0.429-0.164 0.444-3.132 0.245-3.295-0.206-5.648-0.206-9.585 0-3.414 0.184-3.457 0.184-3.457-0.26 0-0.138 0.050-0.322 0.107-0.421 0.42-0.635 2.704-1.326 5.126-1.54 1.224-0.107 3.936-0.092 5.323 0.031zM19.846 22.673c1.155 0.076 3.201 0.276 3.466 0.336l0.157 0.038-0.171 0.329c-0.328 0.62-0.407 2.114-0.143 2.559 0.128 0.199 0.135 0.199-0.428 0.099-0.855-0.153-2.285-0.299-3.8-0.39-2.696-0.153-7.419 0.008-9.157 0.314-0.235 0.046-0.527 0.099-0.649 0.115l-0.228 0.038 0.1-0.283c0.206-0.635 0.071-2.054-0.249-2.533l-0.157-0.237 0.164-0.038c0.228-0.054 1.352-0.184 2.43-0.283 2.319-0.214 6.033-0.237 8.643-0.061zM20.838 27.517c1.412 0.184 2.148 0.383 2.465 0.681 0.299 0.283 0.349 0.574 0.143 0.819-0.278 0.329-1.301 0.59-3.064 0.78-1.181 0.13-7.385 0.13-8.643 0-2.293-0.237-3.218-0.567-3.218-1.147 0-0.237 0.242-0.528 0.613-0.727 0.335-0.184 1.301-0.344 2.593-0.436 0.649-0.046 1.711-0.205 1.891-0.221 0.178-0.015 1.352 0.098 3.098 0.106 2.353 0.015 3.423 0.054 4.125 0.145z"></path>
</symbol>
<symbol id="icon-b-rook" viewBox="0 0 22 32">
<title>b-rook</title>
<path fill="#333" style="fill: var(--color1, #333)" d="M2.937-0.045l-2.028 0.009-1.284 1.463 0.008 2.525v2.524l1.96 2.097 1.968 2.088v10.954l-4.553 5.562v3.885l0.8 0.958h20.795l0.855-1.061v-3.723l-4.544-5.622v-11.039l3.919-4.168v-4.929l-0.641-0.782-0.634-0.776h-4.065l-0.392 0.43-0.4 0.43v1.498h-1.241v-1.378l-0.785-0.976h-4.972l-0.717 0.89v1.463h-1.309v-1.48l-0.731-0.873z"></path>
<path fill="#535d6c" style="fill: var(--color2, #535d6c)" d="M0.284 0.725l-0.641 0.733 0.007 2.524v2.524l3.928 4.185v10.954l-4.544 5.562v3.885l0.799 0.958h20.795l0.854-1.061v-3.723l-4.544-5.614v-11.039l1.96-2.088 1.96-2.079v-4.929l-1.275-1.557h-4.065l-0.393 0.43-0.4 0.43v1.498h-1.241v-1.378l-0.786-0.976h-4.972l-0.716 0.89v1.463h-1.309v-1.48l-0.731-0.873h-2.028l-2.037 0.008zM4.264 2.907v0.733l0.648 0.809h2.969l0.654-0.767v-1.421h3.38v1.412l0.703 0.775h1.463l1.455-0.008 0.655-0.733v-1.532h2.524l0.579 0.724v3.106l-1.523 1.489-1.523 1.498-12.006-0.008-3.064-3.029v-2.944l0.289-0.421 0.282-0.412h2.533zM15.389 15.658v4.844h-10.184v-9.67h10.184zM16.929 23.933c0.731 0.856 1.386 1.634 1.463 1.729 0.131 0.151-0.090 0.151-8.095 0.151l-8.232-0.009 2.892-3.44 10.646-0.009zM19.941 28.802v1.053h-19.34v-2.105h19.34z"></path>
</symbol>
<symbol id="icon-w-bishop" viewBox="0 0 29 32">
<title>w-bishop</title>
<path fill="#fff6d5" style="fill: var(--color3, #fff6d5)" d="M14.284 0.12c-0.361 0.008-0.715 0.045-0.941 0.105-0.89 0.242-1.523 0.741-1.848 1.455-0.165 0.357-0.178 0.471-0.178 1.249 0.007 0.763 0.027 0.907 0.186 1.309 0.104 0.25 0.31 0.635 0.454 0.873l0.268 0.413-0.213 0.043c-1.044 0.207-3.834 2.362-4.955 3.825-1.609 2.122-1.891 4.364-0.833 6.752 0.31 0.685 0.984 1.754 1.575 2.49 0.254 0.314 0.461 0.599 0.461 0.642 0 0.036-0.124 0.535-0.268 1.104-0.681 2.636-0.661 2.524-0.531 2.892 0.275 0.742 1.018 1.138 2.858 1.515 0.378 0.078-1.848 0.691-2.995 0.82-0.482 0.057-1.147 0.065-2.216 0.015-0.839-0.036-1.72-0.044-1.96-0.015-1.001 0.122-2.114 1.010-2.858 2.259l-0.351 0.599 0.591 0.899c1.104 1.66 1.771 2.473 2.225 2.721l0.24 0.129 0.13-0.243c0.138-0.264 0.351-0.436 0.68-0.535 0.24-0.078 3.183-0.492 4.715-0.671 2.542-0.299 3.988-0.783 5.28-1.797l0.578-0.45 0.42 0.329c1.386 1.078 3.62 1.729 7.231 2.097 2.148 0.229 2.85 0.385 3.312 0.756 0.131 0.1 0.269 0.264 0.31 0.356l0.075 0.172 0.329-0.193c0.66-0.371 1.284-1.164 2.524-3.201l0.227-0.37-0.247-0.436c-0.474-0.842-1.147-1.592-1.771-1.994-0.337-0.207-1.010-0.428-1.386-0.442-0.193-0.007-1.053 0.014-1.925 0.043-2.020 0.071-3.012-0.064-4.707-0.634-0.412-0.135-0.481-0.178-0.343-0.207 0.097-0.021 0.406-0.085 0.695-0.149 1.438-0.299 2.259-0.941 2.259-1.754 0-0.278-0.171-0.95-0.577-2.285-0.131-0.413-0.248-0.89-0.276-1.070-0.041-0.314-0.028-0.335 0.343-0.785 0.55-0.663 1.352-1.934 1.677-2.661 0.158-0.342 0.365-0.941 0.454-1.318 0.158-0.607 0.172-0.792 0.144-1.549-0.062-1.583-0.59-2.858-1.72-4.159-1.207-1.395-3.5-3.115-4.57-3.449-0.165-0.050-0.296-0.1-0.296-0.114s0.076-0.134 0.165-0.256c0.412-0.578 0.73-1.523 0.73-2.191 0-0.378-0.2-1.224-0.372-1.566-0.31-0.607-1.053-1.138-1.831-1.292-0.258-0.050-0.626-0.070-0.984-0.061z"></path>
<path fill="#decd87" style="fill: var(--color4, #decd87)" d="M13.382 0.25c-0.898 0.243-1.524 0.742-1.852 1.456-0.165 0.357-0.179 0.471-0.179 1.248 0.007 0.764 0.028 0.907 0.186 1.306 0.103 0.25 0.309 0.636 0.454 0.873l0.269 0.414-0.213 0.043c-1.042 0.207-3.841 2.362-4.963 3.826-1.612 2.121-1.892 4.367-0.834 6.754 0.309 0.685 0.986 1.755 1.572 2.487 0.254 0.314 0.461 0.6 0.461 0.642 0 0.036-0.123 0.535-0.269 1.106-0.681 2.637-0.661 2.529-0.53 2.886 0.275 0.742 1.018 1.14 2.863 1.514 0.378 0.079-1.852 0.692-2.991 0.821-0.482 0.057-1.147 0.064-2.213 0.014-0.842-0.036-1.716-0.043-1.965-0.014-0.994 0.121-2.117 1.006-2.863 2.262l-0.351 0.6 0.592 0.898c1.099 1.664 1.764 2.479 2.229 2.72l0.241 0.128 0.131-0.243c0.138-0.264 0.351-0.435 0.681-0.535 0.241-0.079 3.183-0.492 4.723-0.67 2.542-0.299 3.993-0.785 5.284-1.797l0.578-0.449 0.419 0.329c1.379 1.081 3.616 1.73 7.241 2.096 2.149 0.229 2.847 0.385 3.32 0.756 0.131 0.1 0.269 0.264 0.309 0.357l0.076 0.171 0.33-0.193c0.661-0.371 1.283-1.165 2.526-3.202l0.227-0.371-0.248-0.435c-0.475-0.84-1.147-1.589-1.772-1.996-0.337-0.207-1.010-0.428-1.387-0.443-0.192-0.007-1.050 0.014-1.924 0.043-2.021 0.071-3.015-0.064-4.715-0.636-0.413-0.136-0.482-0.178-0.344-0.207 0.096-0.021 0.406-0.086 0.695-0.15 1.435-0.299 2.261-0.94 2.261-1.755 0-0.279-0.172-0.948-0.578-2.287-0.131-0.414-0.248-0.89-0.275-1.073-0.041-0.314-0.028-0.335 0.344-0.785 0.55-0.664 1.347-1.93 1.676-2.662 0.158-0.343 0.365-0.94 0.454-1.323 0.158-0.606 0.172-0.792 0.144-1.547-0.062-1.58-0.592-2.861-1.716-4.159-1.203-1.389-3.504-3.119-4.571-3.444-0.165-0.050-0.296-0.1-0.296-0.114s0.076-0.136 0.165-0.257c0.413-0.578 0.729-1.522 0.729-2.188 0-0.378-0.2-1.223-0.371-1.564-0.309-0.606-1.050-1.14-1.828-1.289-0.516-0.1-1.475-0.079-1.924 0.043zM14.905 1.931c0.351 0.121 0.681 0.407 0.791 0.678 0.206 0.514 0.069 1.281-0.296 1.614-0.565 0.535-1.716 0.399-2.133-0.25-0.2-0.299-0.269-0.806-0.158-1.156 0.103-0.329 0.447-0.742 0.722-0.865 0.254-0.114 0.763-0.128 1.074-0.021zM15.38 6.63c0.674 0.243 1.548 0.721 2.349 1.273 2.221 1.547 3.496 3.136 3.817 4.75 0.090 0.443 0.090 0.542-0.041 1.214-0.371 1.913-0.736 2.479-1.86 2.878-1.283 0.449-4.947 0.664-7.802 0.457-2.847-0.214-3.713-0.65-4.202-2.138-0.282-0.865-0.413-1.847-0.317-2.421 0.11-0.692 0.654-1.763 1.275-2.504 1.171-1.414 3.32-2.97 4.875-3.535 0.613-0.221 1.235-0.214 1.916 0.036zM10.737 18.442c1.981 0.193 6.174 0.157 7.938-0.079 0.282-0.036 0.523-0.050 0.536-0.043 0.014 0.014-0.027 0.164-0.083 0.335-0.131 0.393-0.131 1.281 0 1.622 0.055 0.136 0.103 0.264 0.103 0.279 0 0.007-0.103-0.014-0.221-0.050-0.922-0.271-4.675-0.428-6.8-0.285-1.163 0.079-2.245 0.221-2.494 0.329-0.117 0.050-0.117 0.036-0.021-0.207 0.186-0.464 0.206-1.031 0.041-1.522-0.179-0.556-0.179-0.542 0.048-0.492 0.103 0.021 0.53 0.071 0.946 0.114zM18.314 21.686c0.834 0.164 1.363 0.55 1.315 0.957-0.027 0.235-0.344 0.399-0.946 0.507-1.379 0.235-7.938 0.279-8.74 0.057-0.523-0.143-0.743-0.299-0.743-0.528 0-0.25 0.186-0.556 0.427-0.7 0.2-0.128 1.219-0.271 2.814-0.399 1.115-0.086 5.268-0.014 5.886 0.107zM14.883 24.605c0.179 0.1 0.646 0.421 1.042 0.721 0.763 0.571 1.812 1.14 2.542 1.389 0.729 0.243 1.475 0.343 4.089 0.542 2.686 0.2 2.975 0.257 3.448 0.685 0.33 0.307 0.419 0.678 0.241 1.081-0.165 0.393-0.392 0.556-0.777 0.556-0.165 0-0.826-0.079-1.475-0.186-0.654-0.1-1.443-0.186-1.756-0.186-0.613 0-2.093-0.193-3.32-0.435-2.005-0.393-3.464-1.173-4.186-2.204-0.158-0.229-0.309-0.421-0.33-0.421-0.021-0.007-0.069 0.064-0.11 0.15-0.041 0.093-0.206 0.321-0.365 0.507-1.131 1.323-3.785 2.188-7.361 2.404-0.626 0.036-1.596 0.143-2.157 0.235-1.315 0.221-1.596 0.171-1.812-0.357-0.344-0.865 0.269-1.481 1.668-1.697 0.378-0.057 1.443-0.136 2.373-0.171 2.269-0.1 3.504-0.299 4.563-0.764 0.496-0.221 0.64-0.307 1.219-0.778 0.986-0.799 1.676-1.248 1.948-1.248 0.103 0 0.337 0.079 0.516 0.171z"></path>
<path fill="#decd87" style="fill: var(--color4, #decd87)" d="M13.462 9.4c-0.021 0.051-0.028 0.507-0.014 1.006l0.021 0.915-1.54 0.043v1.813l1.54 0.043-0.021 1.006-0.021 1.015h1.684v-2.030h1.54v-1.88h-1.54v-2.030h-0.802c-0.621 0-0.818 0.022-0.842 0.101z"></path>
</symbol>
<symbol id="icon-w-king" viewBox="0 0 29 32">
<title>w-king</title>
<path fill="#fff6d5" style="fill: var(--color3, #fff6d5)" d="M14.434 0.021c-0.632 0-0.735 0.015-0.765 0.128-0.022 0.075-0.155 0.489-0.302 0.924l-0.272 0.79-1.797 0.045v1.712l1.985 1.172v0.624c0 0.346-0.030 0.624-0.066 0.624-0.029 0-0.279 0.165-0.544 0.376-0.602 0.466-1.284 1.284-1.617 1.951-0.279 0.549-0.338 0.873-0.359 2.131-0.007 0.451-0.023 0.812-0.030 0.812-0.015 0-0.301-0.188-0.632-0.429-0.757-0.526-1.746-1.001-2.559-1.224-0.786-0.226-2.105-0.248-2.892-0.053-1.070 0.27-1.96 0.737-2.721 1.412-0.618 0.549-0.95 0.976-1.284 1.643-0.448 0.89-0.559 1.438-0.559 2.713 0.007 0.95 0.030 1.147 0.177 1.583 0.272 0.774 0.691 1.532 1.532 2.747 1.549 2.268 1.874 2.85 2.259 4.091 0.383 1.249 0.617 2.644 0.779 4.595 0.059 0.744 0.119 1.027 0.266 1.335 0.544 1.147 2.199 1.866 5.194 2.259 1.421 0.188 7.069 0.188 8.498 0 2.644-0.346 4.304-0.993 4.972-1.925 0.323-0.451 0.382-0.721 0.477-2.079 0.147-2.148 0.552-4.048 1.121-5.212 0.272-0.564 0.566-1.044 2.131-3.406 1.455-2.216 1.806-3.954 1.198-5.913-0.456-1.48-1.592-2.713-3.158-3.449-0.916-0.429-1.421-0.526-2.653-0.519-1.035 0-1.147 0.015-1.797 0.24-0.772 0.264-1.643 0.745-2.302 1.258-0.228 0.188-0.434 0.339-0.456 0.339s-0.036-0.264-0.036-0.587c0-1.078-0.132-1.968-0.359-2.456-0.258-0.579-0.89-1.275-1.677-1.857l-0.618-0.459 0.023-0.564 0.021-0.572 0.976-0.587 0.967-0.594v-1.72h-1.737l-0.118-0.323c-0.066-0.173-0.213-0.594-0.323-0.933l-0.207-0.624z"></path>
<path fill="#decd87" style="fill: var(--color4, #decd87)" d="M13.664 0.148c-0.022 0.075-0.154 0.489-0.301 0.924l-0.272 0.79-1.797 0.045v1.712l1.985 1.172v0.625c0 0.346-0.029 0.625-0.066 0.625-0.029 0-0.279 0.165-0.544 0.377-0.602 0.466-1.284 1.284-1.617 1.951-0.279 0.549-0.338 0.873-0.36 2.131-0.007 0.451-0.022 0.812-0.029 0.812-0.015 0-0.301-0.188-0.632-0.429-0.757-0.526-1.746-1.001-2.559-1.224-0.786-0.226-2.114-0.248-2.892-0.053-1.070 0.27-1.96 0.738-2.721 1.412-0.618 0.549-0.95 0.976-1.284 1.652-0.448 0.89-0.559 1.438-0.559 2.704 0.007 0.95 0.029 1.155 0.176 1.583 0.272 0.774 0.691 1.532 1.532 2.747 1.549 2.268 1.874 2.85 2.259 4.091 0.383 1.249 0.618 2.644 0.78 4.595 0.059 0.744 0.117 1.027 0.264 1.335 0.544 1.147 2.199 1.866 5.194 2.259 1.421 0.188 7.069 0.188 8.498 0 2.644-0.346 4.304-0.993 4.972-1.925 0.323-0.451 0.383-0.722 0.477-2.079 0.147-2.148 0.551-4.048 1.121-5.212 0.272-0.564 0.566-1.044 2.131-3.406 1.455-2.216 1.806-3.954 1.198-5.913-0.456-1.48-1.592-2.713-3.158-3.449-0.916-0.429-1.421-0.526-2.653-0.519-1.035 0-1.147 0.015-1.797 0.24-0.772 0.264-1.643 0.745-2.302 1.258-0.228 0.188-0.434 0.339-0.456 0.339s-0.037-0.264-0.037-0.587c0-1.078-0.133-1.968-0.36-2.456-0.258-0.579-0.89-1.275-1.677-1.857l-0.618-0.459 0.022-0.564 0.022-0.572 0.976-0.587 0.967-0.594v-1.72h-1.746l-0.117-0.323c-0.066-0.173-0.213-0.594-0.323-0.933l-0.206-0.625h-0.721c-0.632 0-0.735 0.015-0.764 0.128zM15.298 7.961c0.727 0.308 1.13 1.326 1.138 2.833 0 1.335-0.235 2.062-1.224 3.654-0.353 0.572-0.669 1.078-0.706 1.13-0.147 0.188-1.54-2.165-1.857-3.141-0.162-0.489-0.191-0.685-0.191-1.575 0-1.643 0.287-2.422 1.044-2.833 0.477-0.256 1.275-0.286 1.797-0.068zM7.074 11.384c1.164 0.301 2.43 1.121 3.637 2.336 1.070 1.078 1.626 1.934 2.156 3.295 0.316 0.812 0.618 2.105 0.647 2.798l0.022 0.489-0.258 0.128c-0.967 0.474-3.226 0.76-6.803 0.85l-1.635 0.038-0.845-1.155c-1.54-2.088-2.148-3.243-2.293-4.339-0.066-0.496 0.199-1.771 0.493-2.388s0.831-1.224 1.326-1.515c0.331-0.196 1.249-0.534 1.703-0.639 0.389-0.090 1.301-0.045 1.848 0.098zM24.018 11.354c0.684 0.181 1.318 0.534 1.848 1.027 0.852 0.805 1.284 1.84 1.284 3.106 0 1.215-0.397 2.071-1.977 4.219l-1.164 1.575-1.643-0.023c-2.892-0.038-4.98-0.226-5.982-0.549-0.602-0.188-1.044-0.407-1.078-0.534-0.037-0.098 0.103-1.095 0.228-1.677 0.338-1.515 1.018-2.952 1.934-4.039 1.326-1.583 3.175-2.858 4.578-3.141 0.507-0.105 1.498-0.083 1.977 0.045zM14.776 22.308c0.655 0.234 1.361 0.323 4.732 0.594 1.9 0.151 3.5 0.294 3.543 0.308 0.066 0.015 0.073 0.075 0.022 0.211-0.176 0.489-0.514 2.653-0.514 3.346 0 0.526-0.044 0.557-0.588 0.383-3.132-0.967-8.985-1.189-13.008-0.489-0.588 0.105-2.319 0.512-2.559 0.609-0.066 0.023-0.125-0.278-0.221-1.113-0.11-0.984-0.206-1.549-0.463-2.79l-0.044-0.203h0.426c0.559 0 3.877-0.264 5.246-0.414 1.224-0.135 2.174-0.294 2.644-0.444 0.434-0.143 0.441-0.143 0.816 0zM17.309 28.281c1.943 0.135 3.098 0.399 3.509 0.805 0.426 0.421 0.125 0.685-1.061 0.924-1.070 0.218-2.122 0.308-4.433 0.353-4.031 0.083-7.351-0.286-7.556-0.828-0.066-0.188 0.125-0.451 0.456-0.625 0.544-0.278 1.814-0.496 3.646-0.625 1.207-0.090 4.185-0.090 5.443-0.007z"></path>
</symbol>
<symbol id="icon-w-knight" viewBox="0 0 29 32">
<title>w-knight</title>
<path fill="#fff6d5" style="fill: var(--color3, #fff6d5)" d="M13.165 0.049c-0.105-0.028-0.19 0.007-0.342 0.083-0.328 0.159-0.924 0.881-1.378 1.643-0.231 0.393-0.424 0.728-0.431 0.745-0.015 0.017-0.321-0.168-0.685-0.41-1.318-0.845-2.405-1.232-3.774-1.326-0.491-0.033-0.899-0.050-0.916-0.041-0.015 0.008 0.037 0.518 0.104 1.13 0.187 1.652 0.163 2.696-0.075 3.705-0.372 1.557-0.722 2.49-2.353 6.367-1.729 4.116-3.038 7.65-3.38 9.157l-0.127 0.526 0.231 0.477c1.053 2.216 2.79 3.235 4.347 2.559 0.082-0.033 0.119-0.008 0.119 0.109 0 0.217 0.306 0.668 0.626 0.924 0.276 0.217 0.95 0.435 1.369 0.435 0.611 0 0.79-0.234 2.276-2.901 0.484-0.873 1.951-2.499 2.815-3.141 0.603-0.443 1.9-1.232 2.037-1.232 0.089 0-0.037 0.881-0.2 1.446-0.283 0.984-0.462 1.301-2.199 3.945-1.361 2.079-1.934 3.192-2.388 4.647-0.231 0.736-0.491 2.011-0.572 2.807l-0.045 0.442h20.281l0.053-0.61c0.104-1.429 0.134-5.092 0.051-6.624-0.432-7.77-2.413-13.264-6.273-17.457-1.472-1.609-2.713-2.447-4.236-2.892-0.618-0.175-1.806-0.251-2.139-0.125-0.149 0.050-0.178-0.016-0.461-0.976-0.477-1.592-0.95-2.362-1.9-3.081-0.238-0.18-0.365-0.271-0.47-0.299z"></path>
<path fill="#decd87" style="fill: var(--color4, #decd87)" d="M12.848 0.052c-0.328 0.158-0.924 0.876-1.378 1.639-0.231 0.392-0.424 0.726-0.432 0.743-0.015 0.017-0.32-0.167-0.685-0.409-1.318-0.842-2.405-1.227-3.774-1.323-0.492-0.033-0.899-0.050-0.916-0.042-0.015 0.008 0.037 0.518 0.104 1.131 0.187 1.649 0.164 2.684-0.074 3.7-0.372 1.553-0.722 2.482-2.353 6.345-1.729 4.102-3.038 7.639-3.38 9.115l-0.127 0.525 0.231 0.475c1.053 2.214 2.79 3.23 4.347 2.549 0.082-0.033 0.119-0.008 0.119 0.108 0 0.217 0.306 0.667 0.626 0.926 0.276 0.217 0.95 0.434 1.369 0.434 0.611 0 0.79-0.234 2.276-2.895 0.484-0.867 1.951-2.492 2.815-3.134 0.603-0.442 1.9-1.227 2.037-1.227 0.089 0-0.037 0.876-0.201 1.447-0.283 0.987-0.462 1.303-2.199 3.939-1.361 2.080-1.934 3.192-2.388 4.639-0.231 0.734-0.492 2.013-0.573 2.799l-0.045 0.442h20.281l0.052-0.609c0.104-1.428 0.134-5.080 0.052-6.604-0.432-7.754-2.413-13.227-6.273-17.444-1.472-1.601-2.713-2.444-4.236-2.885-0.619-0.175-1.814-0.25-2.139-0.126-0.149 0.050-0.179-0.017-0.462-0.978-0.477-1.581-0.95-2.348-1.9-3.067-0.477-0.358-0.507-0.367-0.812-0.217zM8.792 3.1l0.619 0.317-0.581 0.317c-0.529 0.284-1.215 0.551-1.438 0.551-0.060 0-0.082-0.225-0.074-0.693 0-0.376-0.022-0.809-0.052-0.958l-0.067-0.267 0.492 0.2c0.268 0.117 0.768 0.351 1.104 0.534zM13.464 2.992c0.082 0.2 0.253 0.818 0.38 1.371 0.268 1.208 0.477 1.859 0.655 2.032 0.104 0.108 0.418 0.133 1.874 0.158l1.754 0.025 0.603 0.367c1.172 0.701 2.73 2.358 3.979 4.217 2.85 4.255 4.253 9.776 4.056 15.814-0.030 0.958-0.075 2.013-0.104 2.339l-0.045 0.584-15.994 0.042 0.052-0.267c0.239-1.227 0.722-2.185 2.798-5.53 0.611-0.987 1.463-2.885 1.737-3.843 0.358-1.313 0.529-2.933 0.388-3.68-0.067-0.334 0.187-1.524 0.7-3.278 0.209-0.709 0.402-1.505 0.424-1.764 0.037-0.442 0.030-0.484-0.149-0.617-0.35-0.259-0.745 0.042-1.335 1.035-0.73 1.198-1.232 2.54-1.498 4.006-0.067 0.334-0.127 0.617-0.141 0.617-3.029 1.649-4.416 2.971-6.23 5.923-0.976 1.601-0.958 1.581-1.241 1.524-0.454-0.1-0.507-0.309-0.276-1.064 0.268-0.867-0.082-0.968-1.164-0.309-0.663 0.401-0.73 0.426-1.087 0.376-0.856-0.108-1.84-0.934-2.088-1.744-0.097-0.326-0.097-0.392 0.060-0.892 0.283-0.951 0.834-2.291 2.482-6.048 2.054-4.716 2.67-6.192 3.072-7.447l0.171-0.525 0.603-0.326c0.335-0.175 0.976-0.459 1.421-0.635 1.977-0.743 2.987-1.486 3.551-2.607 0.253-0.5 0.32-0.493 0.573 0.108z"></path>
<path fill="#decd87" style="fill: var(--color4, #decd87)" d="M8.312 8.966c-0.856 0.267-1.729 1.016-2.020 1.725-0.209 0.518-0.201 1.303 0.015 1.61 0.149 0.217 0.187 0.225 0.663 0.192 1.463-0.126 3.329-2.013 3.004-3.057-0.157-0.493-0.907-0.709-1.66-0.475z"></path>
<path fill="#decd87" style="fill: var(--color4, #decd87)" d="M2.75 19.413c-0.477 0.326-0.633 1.811-0.223 2.099 0.149 0.108 0.648 0.075 0.899-0.058 0.365-0.192 0.529-0.567 0.529-1.227 0-0.475-0.030-0.584-0.179-0.768-0.223-0.267-0.678-0.292-1.027-0.050z"></path>
</symbol>
<symbol id="icon-w-pawn" viewBox="0 0 32 32">
<title>w-pawn</title>
<path fill="#fff6d5" style="fill: var(--color3, #fff6d5)" d="M16.497-0.094c-0.498-0.032-1.014 0.004-1.53 0.113-1.191 0.258-2.526 1.15-3.019 2.033-0.654 1.171-0.613 2.783 0.099 4.292 0.141 0.282 0.248 0.532 0.248 0.564s-0.124 0.105-0.281 0.153c-0.82 0.291-2.085 1.335-2.608 2.157-0.613 0.944-0.878 2.506-0.638 3.687 0.34 1.674 1.16 2.886 2.352 3.471l0.522 0.252-0.437 0.24c-2.732 1.489-4.18 2.834-5.237 4.806-0.729 1.366-1.201 3.081-1.366 4.98-0.099 1.078-0.123 3.101-0.041 3.687l0.057 0.372h22.9l0.057-0.291c0.033-0.161 0.034-1.171 0.009-2.239-0.075-3.368-0.588-5.35-1.859-7.219-1.019-1.479-2.629-2.865-4.642-3.964l-0.687-0.379 0.314-0.12c0.481-0.186 1.304-0.807 1.674-1.263 0.754-0.927 1.047-1.859 1.047-3.307-0.008-1.561-0.414-2.598-1.386-3.543-0.597-0.573-0.944-0.814-1.725-1.181l-0.572-0.274 0.24-0.428c0.448-0.766 0.695-1.623 0.704-2.434 0.008-0.887-0.166-1.479-0.631-2.187-0.746-1.16-2.074-1.869-3.574-1.961z"></path>
<path fill="#decd87" style="fill: var(--color4, #decd87)" d="M14.444 0.008c-1.191 0.258-2.526 1.15-3.019 2.033-0.654 1.171-0.613 2.783 0.099 4.292 0.141 0.282 0.248 0.532 0.248 0.565s-0.124 0.105-0.281 0.153c-0.821 0.291-2.085 1.335-2.608 2.157-0.613 0.944-0.878 2.506-0.638 3.687 0.34 1.674 1.16 2.886 2.352 3.471l0.522 0.25-0.44 0.242c-2.732 1.489-4.18 2.834-5.237 4.806-0.729 1.366-1.201 3.081-1.366 4.98-0.099 1.078-0.124 3.101-0.041 3.687l0.058 0.371h22.9l0.058-0.291c0.033-0.161 0.033-1.171 0.008-2.239-0.075-3.368-0.588-5.35-1.859-7.219-1.019-1.479-2.639-2.865-4.652-3.964l-0.688-0.379 0.315-0.121c0.481-0.186 1.304-0.806 1.674-1.263 0.754-0.927 1.047-1.859 1.047-3.307-0.008-1.561-0.414-2.598-1.397-3.543-0.597-0.573-0.945-0.814-1.725-1.181l-0.571-0.274 0.24-0.427c0.448-0.766 0.696-1.633 0.704-2.434 0.008-0.887-0.165-1.479-0.63-2.187-0.994-1.551-3.029-2.28-5.104-1.848zM16.467 1.867c0.555 0.226 0.953 0.54 1.201 0.967 0.207 0.347 0.24 0.492 0.24 1.008 0 0.54-0.033 0.661-0.29 1.13-0.572 1.037-0.654 1.243-0.688 1.777-0.033 0.484-0.017 0.54 0.191 0.741 0.124 0.121 0.605 0.467 1.058 0.766 1.047 0.67 1.684 1.284 2.023 1.961 0.348 0.701 0.472 1.376 0.414 2.239-0.091 1.222-0.505 1.797-1.951 2.721-0.903 0.58-1.171 0.854-1.171 1.243 0 0.685 0.688 1.366 2.331 2.341 1.951 1.14 3.317 2.485 4.149 4.077 0.572 1.109 1.010 2.824 1.089 4.292 0.025 0.435 0.066 0.944 0.083 1.13l0.041 0.347h-19.203v-0.75c0-0.903 0.174-2.208 0.406-3.091 0.638-2.424 2.054-4.169 4.847-5.987 0.721-0.475 1.479-1.016 1.684-1.212 0.422-0.395 0.729-0.984 0.654-1.263-0.075-0.299-0.448-0.67-1.13-1.14-1.099-0.75-1.602-1.386-1.869-2.352-0.257-0.967-0.041-2.095 0.58-3.009 0.422-0.621 0.845-0.992 1.869-1.633 1.010-0.645 1.119-0.774 1.119-1.376-0.008-0.427-0.066-0.621-0.389-1.304-0.737-1.52-0.77-1.756-0.406-2.495 0.456-0.936 1.222-1.366 2.249-1.294 0.306 0.024 0.696 0.097 0.87 0.169z"></path>
</symbol>
<symbol id="icon-w-queen" viewBox="0 0 32 32">
<title>w-queen</title>
<path fill="#fff6d5" style="fill: var(--color3, #fff6d5)" d="M16.237 0.114c-0.121-0.005-0.239-0.003-0.348 0.005-0.146 0.011-0.277 0.034-0.378 0.070-1.087 0.39-1.711 1.113-1.891 2.165-0.092 0.528-0.071 0.673 0.25 1.583 0.791 2.276 0.864 4.185 0.286 7.736-0.228 1.412-0.556 3.106-0.599 3.106-0.021 0-0.285-0.619-0.591-1.378-1.078-2.653-1.652-4.647-1.84-6.298-0.064-0.62-0.058-0.856 0.078-1.857 0.178-1.318 0.157-1.566-0.17-2.302-0.435-0.967-1.13-1.48-2.079-1.549-1.215-0.084-2.388 0.719-2.704 1.84-0.135 0.513-0.135 1.378 0.008 1.891 0.092 0.344 0.214 0.519 0.741 1.087 0.812 0.873 0.958 1.181 1.138 2.439 0.143 1.018 0.036 5.605-0.135 5.956-0.036 0.069-0.214-0.092-0.563-0.513-0.833-0.984-1.498-1.985-1.866-2.798-0.542-1.198-0.584-1.549-0.385-3.132 0.15-1.258 0.021-1.814-0.591-2.636-1.095-1.455-3.432-1.104-4.236 0.636-0.364 0.804-0.356 1.78 0.021 2.593 0.214 0.452 0.82 1.095 1.344 1.429l0.47 0.299 0.092 0.781c0.107 0.967 0.526 3.26 0.976 5.306 0.178 0.842 0.421 1.943 0.528 2.456 0.107 0.505 0.241 1.018 0.306 1.147 0.057 0.122 0.627 0.856 1.258 1.634 1.275 1.557 1.489 1.866 1.763 2.499 0.278 0.65 0.214 1.121-0.285 2.293-0.598 1.403-0.706 1.831-0.749 2.927l-0.028 0.933 0.256 0.259c0.777 0.788 3.32 1.241 8.113 1.429 3.851 0.153 7.882-0.122 10.012-0.673 0.641-0.161 1.463-0.597 1.617-0.842 0.107-0.169 0.128-0.383 0.122-1.164v-0.967l-0.342-0.804c-0.641-1.506-0.907-2.216-0.916-2.465-0.029-0.873 0.399-1.6 2.165-3.688 1.061-1.267 1.13-1.412 1.557-3.278 0.72-3.166 1.352-6.598 1.352-7.351 0-0.406 0.028-0.436 0.491-0.712 0.941-0.543 1.523-1.412 1.652-2.473 0.057-0.489 0.042-0.612-0.122-1.172-0.171-0.567-0.235-0.68-0.663-1.138-0.57-0.612-0.976-0.788-1.789-0.796-0.456 0-0.607 0.038-1.010 0.245-0.89 0.452-1.446 1.215-1.532 2.114-0.021 0.237 0.015 0.881 0.086 1.455 0.114 0.976 0.113 1.070 0.006 1.592-0.221 1.061-0.958 2.37-2.208 3.894-0.435 0.528-0.655 0.742-0.685 0.673-0.1-0.199-0.235-3.192-0.199-4.381 0.064-1.917 0.414-3.038 1.258-4.022 0.67-0.78 0.762-1.027 0.762-1.985 0-0.734-0.014-0.842-0.207-1.224-0.335-0.689-0.641-1.035-1.172-1.318-0.435-0.229-0.527-0.253-1.155-0.253-0.598 0-0.727 0.023-1.078 0.214-0.907 0.474-1.412 1.224-1.472 2.182-0.021 0.283 0.014 0.881 0.078 1.335 0.228 1.652 0.079 2.944-0.606 5.117-0.407 1.292-1.532 4.236-1.703 4.45-0.064 0.076-0.207-0.575-0.535-2.43-0.727-4.116-0.684-5.751 0.207-8.421 0.285-0.856 0.306-1.070 0.143-1.754-0.199-0.85-0.685-1.498-1.344-1.814-0.245-0.112-0.628-0.183-0.993-0.198z"></path>
<path fill="#decd87" style="fill: var(--color4, #decd87)" d="M15.467 0.189c-1.087 0.39-1.711 1.113-1.891 2.165-0.092 0.528-0.071 0.673 0.249 1.583 0.791 2.276 0.864 4.185 0.285 7.736-0.228 1.412-0.555 3.106-0.598 3.106-0.021 0-0.285-0.62-0.591-1.378-1.078-2.653-1.652-4.647-1.84-6.298-0.064-0.62-0.057-0.856 0.078-1.848 0.178-1.318 0.157-1.566-0.171-2.302-0.435-0.967-1.13-1.48-2.079-1.549-1.215-0.084-2.388 0.72-2.704 1.84-0.135 0.513-0.135 1.378 0.007 1.891 0.092 0.344 0.214 0.52 0.741 1.087 0.812 0.873 0.958 1.181 1.138 2.439 0.143 1.018 0.036 5.605-0.135 5.956-0.036 0.069-0.214-0.092-0.563-0.513-0.833-0.984-1.498-1.985-1.866-2.798-0.542-1.198-0.584-1.549-0.385-3.132 0.15-1.258 0.021-1.814-0.591-2.636-1.095-1.455-3.432-1.104-4.236 0.635-0.364 0.804-0.356 1.78 0.021 2.593 0.214 0.452 0.82 1.095 1.344 1.429l0.471 0.299 0.092 0.78c0.107 0.967 0.527 3.26 0.976 5.306 0.178 0.842 0.42 1.943 0.527 2.456 0.107 0.505 0.242 1.018 0.306 1.147 0.057 0.122 0.627 0.856 1.258 1.634 1.275 1.557 1.489 1.866 1.763 2.499 0.278 0.65 0.214 1.121-0.285 2.293-0.598 1.403-0.705 1.831-0.748 2.927l-0.029 0.933 0.257 0.26c0.777 0.788 3.32 1.241 8.113 1.429 3.851 0.153 7.882-0.122 10.012-0.673 0.641-0.161 1.472-0.596 1.617-0.842 0.107-0.169 0.128-0.383 0.122-1.164v-0.967l-0.342-0.804c-0.641-1.506-0.907-2.216-0.916-2.465-0.029-0.873 0.399-1.6 2.165-3.688 1.061-1.267 1.13-1.412 1.557-3.278 0.72-3.166 1.352-6.598 1.352-7.351 0-0.406 0.029-0.436 0.492-0.712 0.941-0.543 1.523-1.412 1.652-2.473 0.057-0.489 0.043-0.612-0.122-1.172-0.171-0.567-0.235-0.681-0.662-1.138-0.57-0.612-0.976-0.788-1.789-0.796-0.456 0-0.606 0.038-1.010 0.245-0.89 0.452-1.446 1.215-1.532 2.114-0.021 0.237 0.014 0.881 0.085 1.455 0.114 0.976 0.114 1.070 0.007 1.592-0.221 1.061-0.958 2.37-2.208 3.894-0.435 0.528-0.655 0.742-0.684 0.673-0.1-0.199-0.235-3.192-0.199-4.381 0.064-1.917 0.413-3.038 1.258-4.022 0.67-0.78 0.762-1.027 0.762-1.985 0-0.734-0.014-0.842-0.206-1.224-0.335-0.689-0.641-1.044-1.172-1.318-0.435-0.229-0.527-0.252-1.155-0.252-0.598 0-0.727 0.023-1.078 0.214-0.907 0.474-1.412 1.224-1.472 2.182-0.021 0.283 0.014 0.881 0.078 1.335 0.228 1.652 0.078 2.944-0.606 5.117-0.407 1.292-1.532 4.236-1.703 4.45-0.064 0.076-0.206-0.574-0.534-2.43-0.727-4.116-0.684-5.751 0.206-8.421 0.285-0.856 0.306-1.070 0.143-1.754-0.199-0.85-0.684-1.498-1.344-1.814-0.435-0.199-1.309-0.268-1.72-0.122zM16.717 1.678c0.321 0.169 0.499 0.551 0.499 1.070 0 0.85-0.349 1.241-1.104 1.241-0.777 0-1.121-0.398-1.121-1.284 0-0.367 0.028-0.543 0.135-0.689 0.199-0.299 0.57-0.474 0.984-0.474 0.199 0 0.471 0.061 0.606 0.138zM9.374 3.218c0.57 0.436 0.563 1.643-0.014 2.097-0.285 0.229-0.82 0.26-1.215 0.069-0.42-0.199-0.563-0.497-0.563-1.13 0-0.689 0.221-1.044 0.762-1.189 0.306-0.084 0.827-0.008 1.035 0.153zM24.179 3.218c0.328 0.199 0.477 0.574 0.449 1.13-0.043 0.742-0.356 1.087-1.053 1.147-0.413 0.046-0.89-0.214-1.078-0.59-0.264-0.52-0.122-1.326 0.285-1.66 0.321-0.268 0.984-0.283 1.395-0.031zM3.213 6.402c0.52 0.322 0.684 1.027 0.399 1.703-0.178 0.406-0.442 0.559-0.993 0.559-0.748 0-1.121-0.421-1.121-1.275 0-0.359 0.036-0.528 0.15-0.689 0.335-0.497 1.035-0.627 1.557-0.291zM30.084 6.348c0.399 0.214 0.542 0.482 0.542 1.035 0 0.566-0.122 0.864-0.456 1.104-0.463 0.336-1.267 0.184-1.6-0.299-0.221-0.329-0.235-1.018-0.029-1.395 0.299-0.543 1.001-0.75 1.549-0.444zM9.973 9.711c0.285 0.933 0.984 2.764 1.386 3.646 0.534 1.147 0.873 1.694 1.703 2.713l0.691 0.864 0.435-0.75c0.812-1.421 1.309-3.038 1.763-5.699 0.085-0.536 0.178-0.967 0.193-0.95 0.014 0.023 0.199 0.834 0.407 1.823 0.392 1.831 0.72 3.106 0.907 3.577 0.064 0.145 0.321 0.658 0.57 1.13l0.463 0.856 0.662-0.842c0.924-1.172 1.301-1.78 1.874-3.064 0.549-1.224 0.627-1.438 1.13-2.867l0.342-0.993-0.043 0.958c-0.050 1.121 0.064 2.815 0.299 4.595 0.178 1.275 0.442 2.91 0.484 2.961 0.043 0.046 1.070-0.75 1.66-1.284 0.727-0.65 1.771-1.848 2.524-2.884 0.399-0.559 0.57-0.742 0.57-0.627 0 0.329-0.641 3.586-0.881 4.493-0.249 0.933-0.577 1.746-0.777 1.917-0.078 0.076-0.264 0.008-0.933-0.329-1.925-0.984-4.185-1.575-6.872-1.806-1.446-0.13-4.921-0.038-6.179 0.153-2.37 0.359-4.407 0.993-5.802 1.814-0.428 0.252-0.463 0.26-0.62 0.145-0.392-0.276-0.762-1.549-1.378-4.741-0.122-0.635-0.257-1.284-0.292-1.455-0.036-0.161-0.057-0.314-0.043-0.329 0.014-0.008 0.3 0.352 0.627 0.804 1.164 1.575 2.413 2.875 3.646 3.765 0.62 0.452 0.542 0.543 0.748-0.873 0.428-2.91 0.606-4.861 0.563-6.238-0.014-0.543-0.021-0.993-0.014-0.993s0.085 0.229 0.178 0.513zM18.616 19.039c3.894 0.352 5.682 0.976 5.597 1.943-0.036 0.429-0.164 0.444-3.132 0.245-3.295-0.206-5.648-0.206-9.585 0-3.414 0.184-3.457 0.184-3.457-0.26 0-0.138 0.050-0.322 0.107-0.421 0.42-0.635 2.704-1.326 5.126-1.54 1.224-0.107 3.936-0.092 5.323 0.031zM19.96 22.907c1.155 0.076 3.201 0.276 3.466 0.336l0.157 0.038-0.171 0.329c-0.328 0.62-0.407 2.114-0.143 2.559 0.128 0.199 0.135 0.199-0.428 0.099-0.855-0.153-2.285-0.299-3.8-0.39-2.696-0.153-7.419 0.008-9.157 0.314-0.235 0.046-0.527 0.099-0.649 0.115l-0.228 0.038 0.1-0.283c0.206-0.635 0.071-2.054-0.249-2.533l-0.157-0.237 0.164-0.038c0.228-0.054 1.352-0.184 2.43-0.283 2.319-0.214 6.033-0.237 8.643-0.061zM20.953 27.751c1.412 0.184 2.148 0.383 2.465 0.681 0.299 0.283 0.349 0.574 0.143 0.819-0.278 0.329-1.301 0.59-3.064 0.78-1.181 0.13-7.385 0.13-8.643 0-2.293-0.237-3.218-0.567-3.218-1.147 0-0.237 0.242-0.528 0.613-0.727 0.335-0.184 1.301-0.344 2.593-0.436 0.649-0.046 1.711-0.205 1.891-0.221 0.178-0.015 1.352 0.098 3.098 0.106 2.353 0.015 3.423 0.054 4.125 0.145z"></path>
</symbol>
<symbol id="icon-w-rook" viewBox="0 0 22 32">
<title>w-rook</title>
<path fill="#fff6d5" style="fill: var(--color3, #fff6d5)" d="M3.864 0.021l-2.028 0.009-1.284 1.463 0.008 2.525v2.524l1.96 2.097 1.968 2.088v10.954l-4.553 5.562v3.885l0.8 0.958h20.795l0.855-1.061v-3.723l-4.544-5.622v-11.039l3.919-4.168v-4.929l-0.641-0.782-0.634-0.776h-4.065l-0.392 0.43-0.4 0.43v1.498h-1.241v-1.378l-0.785-0.976h-4.972l-0.717 0.89v1.463h-1.309v-1.48l-0.731-0.873z"></path>
<path fill="#decd87" style="fill: var(--color4, #decd87)" d="M1.126 0.765l-0.641 0.733 0.007 2.525v2.525l3.928 4.185v10.954l-4.544 5.562v3.885l0.799 0.958h20.795l0.854-1.061v-3.723l-4.544-5.614v-11.039l1.96-2.088 1.96-2.079v-4.929l-1.275-1.557h-4.065l-0.393 0.43-0.4 0.43v1.498h-1.241v-1.378l-0.786-0.976h-4.972l-0.716 0.89v1.463h-1.309v-1.48l-0.731-0.873h-2.028l-2.037 0.008zM5.105 2.947v0.733l0.648 0.809h2.969l0.654-0.767v-1.421h3.38v1.412l0.703 0.775h1.463l1.455-0.008 0.655-0.733v-1.532h2.524l0.578 0.724v3.106l-1.523 1.489-1.523 1.498-12.006-0.008-3.064-3.029v-2.944l0.289-0.421 0.282-0.412h2.533zM16.23 15.698v4.844h-10.184v-9.67h10.184zM17.77 23.973c0.731 0.856 1.386 1.634 1.463 1.729 0.131 0.151-0.090 0.151-8.095 0.151l-8.232-0.008 2.892-3.44 10.646-0.008zM20.783 28.842v1.053h-19.34v-2.105h19.34z"></path>
</symbol>
</defs>
</svg>
